<svg width="1200" height="260" viewBox="0 0 1200 260" fill="none" xmlns="http://www.w3.org/2000/svg">
  <defs>
    <linearGradient id="mk" x1="0" y1="0" x2="1" y2="1">
      <stop offset="0" stop-color="#e96ba8"/><stop offset="1" stop-color="#8b8bef"/>
    </linearGradient>
  </defs>
  <rect width="1200" height="260" fill="#ffffff"/>
  <g transform="translate(960 0) skewX(-12)">
    <rect x="0" y="-20" width="48" height="300" fill="#fff2f9"/>
    <rect x="74" y="-20" width="24" height="300" fill="#e9e9fe"/>
    <rect x="122" y="-20" width="10" height="300" fill="#fdd9ec"/>
    <rect x="156" y="-20" width="4" height="300" fill="#e1e1fe"/>
  </g>
  <g transform="translate(740 62)">
    <rect x="0" y="0" width="62" height="62" rx="16" fill="#e1e1fe"/>
    <rect x="74" y="0" width="62" height="62" rx="16" fill="#fdd9ec"/>
    <rect x="0" y="74" width="62" height="62" rx="16" fill="#fdd9ec"/>
    <rect x="74" y="74" width="62" height="62" rx="16" fill="url(#mk)"/>
    <g transform="translate(92 94) skewX(-12)"><rect width="26" height="24" rx="8" fill="#ffffff" opacity="0.85"/></g>
  </g>
  <g transform="translate(80 58) skewX(-12)"><rect width="16" height="42" rx="5" fill="#fdd9ec"/></g>
  <g transform="translate(104 58) skewX(-12)"><rect width="7" height="42" rx="3.5" fill="#e1e1fe"/></g>
  <text x="128" y="92" font-family="system-ui,-apple-system,'Segoe UI',Roboto,'PingFang SC','Hiragino Sans','Microsoft YaHei',sans-serif" font-size="48" font-weight="700" letter-spacing="-0.5" fill="#3a3340">sticker-mcp</text>
  <text x="130" y="134" font-family="system-ui,-apple-system,'Segoe UI',Roboto,'PingFang SC','Hiragino Sans','Microsoft YaHei',sans-serif" font-size="21" fill="#8a7d8f">让 AI 在对话里发出恰到好处的表情包</text>
  <text x="130" y="163" font-family="system-ui,-apple-system,'Segoe UI',Roboto,'PingFang SC','Hiragino Sans','Microsoft YaHei',sans-serif" font-size="14.5" fill="#b8aabb">Expressive stickers in AI chat — inline widget + web admin</text>
  <g transform="translate(130 186) skewX(-12)"><rect width="315" height="27" rx="7" fill="#fdd9ec"/></g>
  <text x="143" y="204" font-family="ui-monospace,'SF Mono','Cascadia Code',Consolas,monospace" font-size="12" font-weight="700" letter-spacing="1.8" fill="#e96ba8">MCP SERVER · UI WIDGET · WEB ADMIN</text>
  <rect y="259" width="1200" height="1" fill="#f3dce9"/>
</svg>
